<?xml version="1.0" encoding="UTF-8" standalone="no"?>
<!DOCTYPE svg PUBLIC "-//W3C//DTD SVG 1.1//EN" "http://www.w3.org/Graphics/SVG/1.1/DTD/svg11.dtd">
<svg width="100%" height="100%" viewBox="0 0 3169 869" version="1.1" xmlns="http://www.w3.org/2000/svg" xmlns:xlink="http://www.w3.org/1999/xlink" xml:space="preserve" xmlns:serif="http://www.serif.com/" style="fill-rule:evenodd;clip-rule:evenodd;stroke-linejoin:round;stroke-miterlimit:2;">
    <g transform="matrix(1,0,0,1,-169.792,-780.931)">
        <g transform="matrix(1,0,0,1,-804.059,157.429)">
            <g transform="matrix(569.63,0,0,569.63,928.236,1124.5)">
                <path d="M0.08,-0L0.08,-0.716L0.175,-0.716L0.175,-0.422L0.547,-0.422L0.547,-0.716L0.642,-0.716L0.642,-0L0.547,-0L0.547,-0.337L0.175,-0.337L0.175,-0L0.08,-0Z" style="fill:rgb(140,106,93);fill-rule:nonzero;"/>
            </g>
            <g transform="matrix(569.63,0,0,569.63,1339.61,1124.5)">
                <path d="M-0.001,-0L0.273,-0.716L0.375,-0.716L0.668,-0L0.561,-0L0.477,-0.217L0.178,-0.217L0.099,-0L-0.001,-0ZM0.205,-0.294L0.448,-0.294L0.373,-0.492C0.35,-0.552 0.333,-0.602 0.322,-0.641C0.313,-0.595 0.3,-0.549 0.284,-0.504L0.205,-0.294Z" style="fill:rgb(140,106,93);fill-rule:nonzero;"/>
            </g>
            <g transform="matrix(569.63,0,0,569.63,1719.54,1124.5)">
                <path d="M0.074,-0L0.074,-0.716L0.217,-0.716L0.386,-0.209C0.402,-0.162 0.413,-0.126 0.42,-0.103C0.429,-0.129 0.441,-0.167 0.458,-0.218L0.63,-0.716L0.757,-0.716L0.757,-0L0.666,-0L0.666,-0.599L0.458,-0L0.373,-0L0.166,-0.609L0.166,-0L0.074,-0Z" style="fill:rgb(140,106,93);fill-rule:nonzero;"/>
            </g>
            <g transform="matrix(569.63,0,0,569.63,2194.05,1124.5)">
                <path d="M0.073,-0L0.073,-0.716L0.342,-0.716C0.396,-0.716 0.44,-0.709 0.473,-0.694C0.506,-0.68 0.532,-0.657 0.551,-0.627C0.57,-0.597 0.579,-0.566 0.579,-0.533C0.579,-0.502 0.571,-0.473 0.554,-0.446C0.538,-0.419 0.513,-0.397 0.479,-0.381C0.522,-0.368 0.556,-0.347 0.579,-0.316C0.602,-0.285 0.614,-0.249 0.614,-0.208C0.614,-0.174 0.607,-0.143 0.593,-0.114C0.578,-0.085 0.561,-0.063 0.54,-0.047C0.519,-0.032 0.493,-0.02 0.462,-0.012C0.43,-0.004 0.392,-0 0.346,-0L0.073,-0ZM0.168,-0.415L0.323,-0.415C0.365,-0.415 0.395,-0.418 0.413,-0.423C0.437,-0.431 0.455,-0.442 0.468,-0.459C0.48,-0.476 0.486,-0.496 0.486,-0.521C0.486,-0.545 0.48,-0.566 0.469,-0.584C0.457,-0.602 0.441,-0.615 0.42,-0.621C0.399,-0.628 0.362,-0.631 0.311,-0.631L0.168,-0.631L0.168,-0.415ZM0.168,-0.084L0.346,-0.084C0.377,-0.084 0.398,-0.086 0.411,-0.088C0.432,-0.092 0.451,-0.098 0.465,-0.107C0.48,-0.117 0.492,-0.13 0.501,-0.147C0.511,-0.165 0.516,-0.185 0.516,-0.208C0.516,-0.234 0.509,-0.257 0.495,-0.277C0.481,-0.297 0.462,-0.311 0.438,-0.319C0.414,-0.327 0.379,-0.331 0.333,-0.331L0.168,-0.331L0.168,-0.084Z" style="fill:rgb(140,106,93);fill-rule:nonzero;"/>
            </g>
            <g transform="matrix(569.63,0,0,569.63,2573.99,1124.5)">
                <path d="M0.547,-0.716L0.642,-0.716L0.642,-0.302C0.642,-0.23 0.633,-0.173 0.617,-0.131C0.601,-0.089 0.572,-0.054 0.529,-0.028C0.487,-0.001 0.431,0.012 0.362,0.012C0.295,0.012 0.24,0.001 0.197,-0.022C0.155,-0.046 0.124,-0.079 0.106,-0.123C0.088,-0.167 0.079,-0.226 0.079,-0.302L0.079,-0.716L0.173,-0.716L0.173,-0.303C0.173,-0.241 0.179,-0.195 0.191,-0.165C0.202,-0.136 0.222,-0.113 0.25,-0.097C0.278,-0.081 0.313,-0.073 0.354,-0.073C0.423,-0.073 0.473,-0.089 0.502,-0.121C0.532,-0.152 0.547,-0.213 0.547,-0.303L0.547,-0.716Z" style="fill:rgb(140,106,93);fill-rule:nonzero;"/>
            </g>
            <g transform="matrix(569.63,0,0,569.63,2985.36,1124.5)">
                <path d="M0.045,-0.23L0.134,-0.238C0.139,-0.202 0.148,-0.173 0.164,-0.15C0.179,-0.127 0.203,-0.108 0.236,-0.094C0.268,-0.08 0.305,-0.073 0.346,-0.073C0.382,-0.073 0.414,-0.078 0.441,-0.089C0.469,-0.1 0.49,-0.114 0.503,-0.133C0.517,-0.152 0.523,-0.172 0.523,-0.194C0.523,-0.217 0.517,-0.236 0.504,-0.253C0.491,-0.27 0.469,-0.284 0.439,-0.295C0.42,-0.303 0.378,-0.315 0.312,-0.33C0.246,-0.346 0.2,-0.361 0.174,-0.375C0.14,-0.393 0.114,-0.415 0.097,-0.442C0.081,-0.468 0.072,-0.498 0.072,-0.531C0.072,-0.567 0.083,-0.601 0.103,-0.632C0.124,-0.663 0.153,-0.687 0.193,-0.704C0.232,-0.72 0.276,-0.728 0.324,-0.728C0.377,-0.728 0.424,-0.719 0.465,-0.702C0.505,-0.685 0.536,-0.66 0.558,-0.627C0.58,-0.594 0.592,-0.556 0.593,-0.514L0.502,-0.507C0.498,-0.553 0.481,-0.587 0.453,-0.61C0.425,-0.633 0.383,-0.645 0.328,-0.645C0.271,-0.645 0.229,-0.634 0.203,-0.613C0.177,-0.592 0.164,-0.567 0.164,-0.537C0.164,-0.511 0.173,-0.49 0.191,-0.474C0.21,-0.457 0.257,-0.44 0.334,-0.423C0.411,-0.405 0.464,-0.39 0.493,-0.377C0.534,-0.358 0.565,-0.333 0.585,-0.304C0.605,-0.274 0.615,-0.241 0.615,-0.202C0.615,-0.164 0.604,-0.128 0.582,-0.094C0.56,-0.061 0.529,-0.035 0.488,-0.016C0.447,0.003 0.401,0.012 0.35,0.012C0.285,0.012 0.231,0.003 0.187,-0.016C0.143,-0.035 0.109,-0.063 0.084,-0.101C0.059,-0.139 0.046,-0.182 0.045,-0.23Z" style="fill:rgb(140,106,93);fill-rule:nonzero;"/>
            </g>
            <g transform="matrix(569.63,0,0,569.63,3365.3,1124.5)">
                <path d="M0.588,-0.251L0.683,-0.227C0.663,-0.149 0.627,-0.09 0.575,-0.049C0.524,-0.008 0.461,0.012 0.386,0.012C0.309,0.012 0.246,-0.003 0.198,-0.035C0.15,-0.066 0.113,-0.112 0.088,-0.171C0.062,-0.231 0.05,-0.295 0.05,-0.363C0.05,-0.438 0.064,-0.503 0.093,-0.558C0.121,-0.614 0.162,-0.656 0.214,-0.685C0.267,-0.714 0.325,-0.728 0.388,-0.728C0.459,-0.728 0.52,-0.71 0.568,-0.673C0.617,-0.637 0.651,-0.586 0.67,-0.52L0.577,-0.498C0.561,-0.55 0.536,-0.588 0.505,-0.611C0.473,-0.635 0.434,-0.647 0.386,-0.647C0.331,-0.647 0.285,-0.634 0.248,-0.607C0.211,-0.581 0.185,-0.546 0.17,-0.501C0.155,-0.457 0.147,-0.411 0.147,-0.364C0.147,-0.303 0.156,-0.25 0.174,-0.204C0.192,-0.159 0.219,-0.125 0.257,-0.103C0.294,-0.08 0.335,-0.069 0.378,-0.069C0.431,-0.069 0.476,-0.084 0.513,-0.115C0.55,-0.145 0.575,-0.191 0.588,-0.251Z" style="fill:rgb(140,106,93);fill-rule:nonzero;"/>
            </g>
            <g transform="matrix(569.63,0,0,569.63,3776.67,1124.5)">
                <path d="M0.08,-0L0.08,-0.716L0.175,-0.716L0.175,-0.422L0.547,-0.422L0.547,-0.716L0.642,-0.716L0.642,-0L0.547,-0L0.547,-0.337L0.175,-0.337L0.175,-0L0.08,-0Z" style="fill:rgb(140,106,93);fill-rule:nonzero;"/>
            </g>
        </g>
        <g transform="matrix(1,0,0,1,-539.022,0)">
            <g transform="matrix(145.833,0,0,145.833,1275.22,1648.19)">
                <path d="M0.612,-0L0.514,-0L0.257,-0.347L0.181,-0.279L0.181,-0L0.098,-0L0.098,-0.714L0.181,-0.714L0.181,-0.358C0.199,-0.379 0.218,-0.4 0.238,-0.421C0.257,-0.442 0.277,-0.463 0.296,-0.485L0.504,-0.714L0.602,-0.714L0.317,-0.404L0.612,-0Z" style="fill-rule:nonzero;"/>
            </g>
            <g transform="matrix(145.833,0,0,145.833,1402.4,1648.19)">
                <path d="M0.638,-0.714L0.638,-0.252C0.638,-0.201 0.628,-0.157 0.607,-0.117C0.587,-0.078 0.556,-0.047 0.515,-0.024C0.474,-0.002 0.423,0.01 0.361,0.01C0.273,0.01 0.205,-0.014 0.159,-0.062C0.113,-0.11 0.09,-0.174 0.09,-0.254L0.09,-0.714L0.174,-0.714L0.174,-0.251C0.174,-0.191 0.19,-0.144 0.222,-0.111C0.254,-0.078 0.302,-0.062 0.366,-0.062C0.409,-0.062 0.445,-0.07 0.473,-0.086C0.501,-0.101 0.521,-0.124 0.535,-0.152C0.548,-0.181 0.555,-0.214 0.555,-0.251L0.555,-0.714L0.638,-0.714Z" style="fill-rule:nonzero;"/>
            </g>
            <g transform="matrix(145.833,0,0,145.833,1546.6,1648.19)">
                <path d="M0.656,-0L0.56,-0L0.171,-0.6L0.167,-0.6C0.168,-0.584 0.169,-0.566 0.17,-0.545C0.172,-0.525 0.173,-0.503 0.174,-0.48C0.174,-0.457 0.175,-0.434 0.175,-0.41L0.175,-0L0.098,-0L0.098,-0.714L0.193,-0.714L0.581,-0.116L0.584,-0.116C0.583,-0.128 0.583,-0.144 0.582,-0.165C0.581,-0.186 0.58,-0.208 0.579,-0.233C0.578,-0.257 0.578,-0.279 0.578,-0.3L0.578,-0.714L0.656,-0.714L0.656,-0Z" style="fill-rule:nonzero;"/>
            </g>
            <g transform="matrix(145.833,0,0,145.833,1694.28,1648.19)">
                <path d="M0.5,-0.19C0.5,-0.148 0.49,-0.112 0.469,-0.082C0.448,-0.052 0.419,-0.029 0.381,-0.014C0.343,0.002 0.299,0.01 0.248,0.01C0.221,0.01 0.195,0.008 0.171,0.006C0.147,0.003 0.125,-0 0.104,-0.005C0.084,-0.01 0.067,-0.016 0.051,-0.023L0.051,-0.103C0.076,-0.093 0.105,-0.084 0.141,-0.075C0.176,-0.066 0.213,-0.062 0.251,-0.062C0.287,-0.062 0.317,-0.067 0.342,-0.076C0.367,-0.086 0.385,-0.1 0.398,-0.118C0.411,-0.136 0.417,-0.158 0.417,-0.183C0.417,-0.208 0.412,-0.228 0.401,-0.244C0.391,-0.261 0.373,-0.276 0.348,-0.289C0.323,-0.303 0.289,-0.317 0.246,-0.333C0.216,-0.343 0.189,-0.355 0.166,-0.368C0.143,-0.381 0.124,-0.395 0.108,-0.412C0.092,-0.428 0.08,-0.447 0.073,-0.468C0.065,-0.49 0.061,-0.514 0.061,-0.542C0.061,-0.58 0.07,-0.613 0.09,-0.64C0.109,-0.667 0.136,-0.688 0.17,-0.702C0.205,-0.717 0.244,-0.724 0.289,-0.724C0.327,-0.724 0.362,-0.721 0.394,-0.713C0.427,-0.706 0.456,-0.697 0.483,-0.685L0.458,-0.613C0.432,-0.624 0.405,-0.633 0.376,-0.64C0.347,-0.647 0.317,-0.651 0.287,-0.651C0.256,-0.651 0.23,-0.646 0.209,-0.637C0.188,-0.628 0.172,-0.616 0.161,-0.6C0.15,-0.583 0.145,-0.564 0.145,-0.542C0.145,-0.516 0.15,-0.496 0.16,-0.479C0.171,-0.462 0.188,-0.448 0.211,-0.435C0.234,-0.422 0.265,-0.409 0.304,-0.395C0.346,-0.379 0.381,-0.363 0.411,-0.346C0.44,-0.329 0.462,-0.308 0.478,-0.283C0.493,-0.259 0.5,-0.228 0.5,-0.19Z" style="fill-rule:nonzero;"/>
            </g>
            <g transform="matrix(145.833,0,0,145.833,1812.13,1648.19)">
                <path d="M0.317,-0L0.233,-0L0.233,-0.641L0.009,-0.641L0.009,-0.714L0.541,-0.714L0.541,-0.641L0.317,-0.641L0.317,-0Z" style="fill-rule:nonzero;"/>
            </g>
            <g transform="matrix(145.833,0,0,145.833,1930.33,1648.19)">
                <path d="M0.639,-0L0.556,-0L0.556,-0.336L0.181,-0.336L0.181,-0L0.098,-0L0.098,-0.714L0.181,-0.714L0.181,-0.41L0.556,-0.41L0.556,-0.714L0.639,-0.714L0.639,-0Z" style="fill-rule:nonzero;"/>
            </g>
            <g transform="matrix(145.833,0,0,145.833,2075.74,1648.19)">
                <rect x="0.098" y="-0.714" width="0.083" height="0.714" style="fill-rule:nonzero;"/>
            </g>
            <g transform="matrix(145.833,0,0,145.833,2154.35,1648.19)">
                <path d="M0.5,-0.19C0.5,-0.148 0.49,-0.112 0.469,-0.082C0.448,-0.052 0.419,-0.029 0.381,-0.014C0.343,0.002 0.299,0.01 0.248,0.01C0.221,0.01 0.195,0.008 0.171,0.006C0.147,0.003 0.125,-0 0.104,-0.005C0.084,-0.01 0.067,-0.016 0.051,-0.023L0.051,-0.103C0.076,-0.093 0.105,-0.084 0.141,-0.075C0.176,-0.066 0.213,-0.062 0.251,-0.062C0.287,-0.062 0.317,-0.067 0.342,-0.076C0.367,-0.086 0.385,-0.1 0.398,-0.118C0.411,-0.136 0.417,-0.158 0.417,-0.183C0.417,-0.208 0.412,-0.228 0.401,-0.244C0.391,-0.261 0.373,-0.276 0.348,-0.289C0.323,-0.303 0.289,-0.317 0.246,-0.333C0.216,-0.343 0.189,-0.355 0.166,-0.368C0.143,-0.381 0.124,-0.395 0.108,-0.412C0.092,-0.428 0.08,-0.447 0.073,-0.468C0.065,-0.49 0.061,-0.514 0.061,-0.542C0.061,-0.58 0.07,-0.613 0.09,-0.64C0.109,-0.667 0.136,-0.688 0.17,-0.702C0.205,-0.717 0.244,-0.724 0.289,-0.724C0.327,-0.724 0.362,-0.721 0.394,-0.713C0.427,-0.706 0.456,-0.697 0.483,-0.685L0.458,-0.613C0.432,-0.624 0.405,-0.633 0.376,-0.64C0.347,-0.647 0.317,-0.651 0.287,-0.651C0.256,-0.651 0.23,-0.646 0.209,-0.637C0.188,-0.628 0.172,-0.616 0.161,-0.6C0.15,-0.583 0.145,-0.564 0.145,-0.542C0.145,-0.516 0.15,-0.496 0.16,-0.479C0.171,-0.462 0.188,-0.448 0.211,-0.435C0.234,-0.422 0.265,-0.409 0.304,-0.395C0.346,-0.379 0.381,-0.363 0.411,-0.346C0.44,-0.329 0.462,-0.308 0.478,-0.283C0.493,-0.259 0.5,-0.228 0.5,-0.19Z" style="fill-rule:nonzero;"/>
            </g>
            <g transform="matrix(145.833,0,0,145.833,2272.2,1648.19)">
                <path d="M0.317,-0L0.233,-0L0.233,-0.641L0.009,-0.641L0.009,-0.714L0.541,-0.714L0.541,-0.641L0.317,-0.641L0.317,-0Z" style="fill-rule:nonzero;"/>
            </g>
            <g transform="matrix(145.833,0,0,145.833,2390.41,1648.19)">
                <path d="M0.717,-0.358C0.717,-0.303 0.71,-0.253 0.696,-0.208C0.682,-0.163 0.661,-0.124 0.634,-0.092C0.606,-0.059 0.572,-0.034 0.531,-0.017C0.491,0.001 0.443,0.01 0.39,0.01C0.334,0.01 0.286,0.001 0.245,-0.017C0.204,-0.034 0.17,-0.059 0.142,-0.092C0.115,-0.124 0.095,-0.163 0.081,-0.208C0.068,-0.254 0.061,-0.304 0.061,-0.359C0.061,-0.432 0.073,-0.496 0.097,-0.551C0.121,-0.606 0.158,-0.649 0.207,-0.679C0.256,-0.71 0.317,-0.725 0.391,-0.725C0.462,-0.725 0.521,-0.71 0.57,-0.68C0.618,-0.649 0.655,-0.607 0.679,-0.552C0.704,-0.497 0.717,-0.432 0.717,-0.358ZM0.148,-0.358C0.148,-0.297 0.157,-0.245 0.174,-0.201C0.192,-0.156 0.218,-0.122 0.254,-0.098C0.289,-0.074 0.335,-0.062 0.39,-0.062C0.445,-0.062 0.49,-0.074 0.526,-0.098C0.561,-0.122 0.587,-0.156 0.604,-0.201C0.621,-0.245 0.629,-0.297 0.629,-0.358C0.629,-0.45 0.61,-0.522 0.572,-0.574C0.533,-0.626 0.473,-0.652 0.391,-0.652C0.336,-0.652 0.29,-0.64 0.254,-0.616C0.219,-0.592 0.192,-0.559 0.175,-0.515C0.157,-0.471 0.148,-0.419 0.148,-0.358Z" style="fill-rule:nonzero;"/>
            </g>
            <g transform="matrix(145.833,0,0,145.833,2541.72,1648.19)">
                <path d="M0.291,-0.714C0.349,-0.714 0.398,-0.707 0.436,-0.692C0.474,-0.678 0.503,-0.656 0.521,-0.626C0.54,-0.596 0.55,-0.559 0.55,-0.513C0.55,-0.475 0.543,-0.443 0.529,-0.418C0.516,-0.393 0.498,-0.373 0.476,-0.357C0.453,-0.341 0.43,-0.329 0.405,-0.321L0.601,-0L0.504,-0L0.329,-0.298L0.181,-0.298L0.181,-0L0.098,-0L0.098,-0.714L0.291,-0.714ZM0.286,-0.642L0.181,-0.642L0.181,-0.368L0.294,-0.368C0.352,-0.368 0.395,-0.38 0.423,-0.404C0.45,-0.428 0.464,-0.463 0.464,-0.509C0.464,-0.557 0.449,-0.592 0.42,-0.612C0.391,-0.632 0.346,-0.642 0.286,-0.642Z" style="fill-rule:nonzero;"/>
            </g>
            <g transform="matrix(145.833,0,0,145.833,2669.61,1648.19)">
                <rect x="0.098" y="-0.714" width="0.083" height="0.714" style="fill-rule:nonzero;"/>
            </g>
            <g transform="matrix(145.833,0,0,145.833,2748.23,1648.19)">
                <path d="M0.612,-0L0.514,-0L0.257,-0.347L0.181,-0.279L0.181,-0L0.098,-0L0.098,-0.714L0.181,-0.714L0.181,-0.358C0.199,-0.379 0.218,-0.4 0.238,-0.421C0.257,-0.442 0.277,-0.463 0.296,-0.485L0.504,-0.714L0.602,-0.714L0.317,-0.404L0.612,-0Z" style="fill-rule:nonzero;"/>
            </g>
            <g transform="matrix(145.833,0,0,145.833,2875.4,1648.19)">
                <path d="M0.495,-0L0.098,-0L0.098,-0.714L0.495,-0.714L0.495,-0.641L0.181,-0.641L0.181,-0.41L0.477,-0.41L0.477,-0.337L0.181,-0.337L0.181,-0.073L0.495,-0.073L0.495,-0Z" style="fill-rule:nonzero;"/>
            </g>
            <g transform="matrix(145.833,0,0,145.833,2994.32,1648.19)">
                <path d="M0.291,-0.714C0.349,-0.714 0.398,-0.707 0.436,-0.692C0.474,-0.678 0.503,-0.656 0.521,-0.626C0.54,-0.596 0.55,-0.559 0.55,-0.513C0.55,-0.475 0.543,-0.443 0.529,-0.418C0.516,-0.393 0.498,-0.373 0.476,-0.357C0.453,-0.341 0.43,-0.329 0.405,-0.321L0.601,-0L0.504,-0L0.329,-0.298L0.181,-0.298L0.181,-0L0.098,-0L0.098,-0.714L0.291,-0.714ZM0.286,-0.642L0.181,-0.642L0.181,-0.368L0.294,-0.368C0.352,-0.368 0.395,-0.38 0.423,-0.404C0.45,-0.428 0.464,-0.463 0.464,-0.509C0.464,-0.557 0.449,-0.592 0.42,-0.612C0.391,-0.632 0.346,-0.642 0.286,-0.642Z" style="fill-rule:nonzero;"/>
            </g>
            <g transform="matrix(145.833,0,0,145.833,3122.21,1648.19)">
                <rect x="0.098" y="-0.714" width="0.083" height="0.714" style="fill-rule:nonzero;"/>
            </g>
            <g transform="matrix(145.833,0,0,145.833,3200.82,1648.19)">
                <path d="M0.656,-0L0.56,-0L0.171,-0.6L0.167,-0.6C0.168,-0.584 0.169,-0.566 0.17,-0.545C0.172,-0.525 0.173,-0.503 0.174,-0.48C0.174,-0.457 0.175,-0.434 0.175,-0.41L0.175,-0L0.098,-0L0.098,-0.714L0.193,-0.714L0.581,-0.116L0.584,-0.116C0.583,-0.128 0.583,-0.144 0.582,-0.165C0.581,-0.186 0.58,-0.208 0.579,-0.233C0.578,-0.257 0.578,-0.279 0.578,-0.3L0.578,-0.714L0.656,-0.714L0.656,-0Z" style="fill-rule:nonzero;"/>
            </g>
        </g>
        <g transform="matrix(1,0,0,1,88.8934,101.679)">
            <g transform="matrix(1391.67,0,0,1391.67,664.783,1304.41)">
                <path d="M0.213,-0.322L0.327,-0.449L0.369,-0.449L0.054,-0.099C0.032,-0.074 0.018,-0.055 0.013,-0.043C0.009,-0.031 0.011,-0.025 0.02,-0.025C0.045,-0.025 0.071,-0.034 0.098,-0.051C0.125,-0.068 0.147,-0.088 0.166,-0.111C0.184,-0.133 0.193,-0.151 0.193,-0.164C0.193,-0.182 0.198,-0.191 0.208,-0.191C0.212,-0.191 0.214,-0.189 0.214,-0.185C0.214,-0.164 0.2,-0.137 0.172,-0.104C0.189,-0.103 0.203,-0.105 0.211,-0.109C0.22,-0.113 0.232,-0.123 0.246,-0.138L0.246,-0.13C0.232,-0.115 0.221,-0.105 0.21,-0.101C0.2,-0.098 0.186,-0.097 0.166,-0.098C0.142,-0.071 0.116,-0.051 0.09,-0.038C0.064,-0.025 0.04,-0.018 0.019,-0.018C0.004,-0.018 -0.003,-0.025 -0.003,-0.039C-0.003,-0.051 0,-0.063 0.006,-0.076C0.012,-0.088 0.022,-0.104 0.037,-0.123C0.041,-0.128 0.047,-0.136 0.055,-0.145C0.064,-0.155 0.117,-0.215 0.13,-0.229C0.142,-0.243 0.148,-0.25 0.149,-0.251L-0.006,-0.118L-0.006,-0.126L0.01,-0.14C0.04,-0.166 0.064,-0.188 0.083,-0.204C0.102,-0.221 0.123,-0.239 0.146,-0.259C0.168,-0.279 0.184,-0.293 0.192,-0.301C0.2,-0.308 0.207,-0.315 0.213,-0.322Z" style="fill-rule:nonzero;"/>
            </g>
            <g transform="matrix(1391.67,0,0,1391.67,999.109,1304.41)">
                <path d="M0.164,-0.294C0.171,-0.294 0.175,-0.29 0.175,-0.281C0.175,-0.276 0.173,-0.271 0.17,-0.268C0.167,-0.265 0.164,-0.263 0.159,-0.263C0.15,-0.263 0.146,-0.267 0.146,-0.275C0.146,-0.279 0.148,-0.284 0.151,-0.288C0.155,-0.292 0.159,-0.294 0.164,-0.294ZM-0.005,-0.119L-0.006,-0.127C0.019,-0.149 0.048,-0.171 0.081,-0.191L0.125,-0.191L0.01,-0.062C0.002,-0.053 -0.004,-0.044 -0.006,-0.037C-0.008,-0.029 -0.006,-0.025 0,-0.025C0.016,-0.025 0.041,-0.037 0.073,-0.061C0.105,-0.085 0.135,-0.111 0.162,-0.137L0.162,-0.129C0.131,-0.099 0.1,-0.073 0.071,-0.051C0.042,-0.029 0.018,-0.018 -0.001,-0.018C-0.012,-0.018 -0.017,-0.024 -0.017,-0.035C-0.017,-0.069 0.009,-0.112 0.062,-0.165C0.065,-0.168 0.075,-0.179 0.077,-0.181C0.048,-0.164 0.021,-0.143 -0.005,-0.119Z" style="fill-rule:nonzero;"/>
            </g>
            <g transform="matrix(1391.67,0,0,1391.67,1215.88,1304.41)">
                <path d="M0.137,-0.188C0.118,-0.188 0.096,-0.178 0.072,-0.159C0.048,-0.14 0.027,-0.118 0.01,-0.094C-0.008,-0.069 -0.017,-0.052 -0.017,-0.042C-0.017,-0.037 -0.015,-0.033 -0.012,-0.03C-0.009,-0.027 -0.005,-0.025 0,-0.025C0.013,-0.025 0.033,-0.034 0.058,-0.053C0.083,-0.071 0.105,-0.092 0.125,-0.116C0.146,-0.139 0.156,-0.158 0.156,-0.171C0.156,-0.182 0.15,-0.188 0.137,-0.188ZM0.266,-0.128L0.241,-0.107C0.202,-0.074 0.173,-0.051 0.155,-0.038C0.136,-0.025 0.119,-0.018 0.105,-0.018C0.096,-0.018 0.091,-0.023 0.091,-0.034C0.091,-0.046 0.095,-0.062 0.104,-0.082C0.057,-0.039 0.023,-0.018 0.001,-0.018C-0.009,-0.018 -0.017,-0.022 -0.023,-0.03C-0.029,-0.037 -0.032,-0.048 -0.032,-0.063C-0.032,-0.08 -0.027,-0.096 -0.018,-0.112C-0.008,-0.128 0.005,-0.142 0.022,-0.155C0.038,-0.167 0.057,-0.177 0.077,-0.184C0.097,-0.191 0.117,-0.195 0.136,-0.195C0.146,-0.195 0.153,-0.193 0.157,-0.19C0.161,-0.186 0.164,-0.181 0.164,-0.173C0.164,-0.171 0.163,-0.165 0.162,-0.162C0.162,-0.16 0.161,-0.157 0.161,-0.156L0.192,-0.192L0.233,-0.195L0.22,-0.179C0.21,-0.167 0.201,-0.157 0.195,-0.149C0.188,-0.141 0.183,-0.134 0.178,-0.129C0.127,-0.074 0.102,-0.042 0.102,-0.032C0.102,-0.027 0.104,-0.025 0.109,-0.025C0.115,-0.025 0.124,-0.029 0.137,-0.036C0.149,-0.043 0.163,-0.053 0.178,-0.065C0.194,-0.077 0.212,-0.091 0.231,-0.108C0.251,-0.124 0.263,-0.134 0.266,-0.136L0.266,-0.128Z" style="fill-rule:nonzero;"/>
            </g>
            <g transform="matrix(1391.67,0,0,1391.67,1577.38,1304.41)">
                <path d="M-0.007,-0.118L-0.007,-0.126C0.043,-0.172 0.077,-0.195 0.097,-0.195C0.108,-0.195 0.114,-0.188 0.114,-0.174C0.114,-0.163 0.11,-0.152 0.104,-0.141C0.097,-0.13 0.083,-0.112 0.062,-0.085C0.102,-0.118 0.137,-0.145 0.167,-0.165C0.197,-0.185 0.222,-0.195 0.243,-0.195C0.254,-0.195 0.26,-0.187 0.26,-0.172C0.26,-0.157 0.255,-0.142 0.244,-0.127C0.234,-0.112 0.217,-0.096 0.193,-0.079C0.167,-0.06 0.155,-0.046 0.155,-0.038C0.155,-0.035 0.156,-0.032 0.159,-0.029C0.163,-0.026 0.166,-0.025 0.169,-0.025C0.18,-0.025 0.195,-0.031 0.214,-0.044C0.233,-0.056 0.253,-0.072 0.275,-0.092C0.298,-0.111 0.315,-0.126 0.329,-0.138L0.329,-0.13C0.309,-0.111 0.29,-0.094 0.271,-0.078C0.252,-0.062 0.233,-0.048 0.215,-0.036C0.196,-0.024 0.18,-0.018 0.168,-0.018C0.16,-0.018 0.155,-0.021 0.151,-0.026C0.148,-0.031 0.146,-0.036 0.146,-0.042C0.146,-0.054 0.151,-0.068 0.161,-0.084C0.17,-0.099 0.184,-0.114 0.201,-0.129C0.221,-0.146 0.235,-0.161 0.242,-0.171C0.25,-0.182 0.248,-0.187 0.236,-0.187C0.221,-0.187 0.197,-0.177 0.167,-0.156C0.136,-0.135 0.107,-0.114 0.08,-0.091C0.053,-0.068 0.027,-0.045 0.003,-0.023L-0.035,-0.023L0.03,-0.096C0.077,-0.149 0.101,-0.178 0.101,-0.183C0.101,-0.186 0.099,-0.188 0.095,-0.188C0.081,-0.188 0.047,-0.165 -0.007,-0.118Z" style="fill-rule:nonzero;"/>
            </g>
            <g transform="matrix(1391.67,0,0,1391.67,2027.23,1304.41)">
                <path d="M0.204,-0.138L0.204,-0.13C0.127,-0.055 0.063,-0.018 0.011,-0.018C-0.002,-0.018 -0.012,-0.022 -0.019,-0.029C-0.025,-0.036 -0.028,-0.048 -0.028,-0.066C-0.028,-0.082 -0.023,-0.097 -0.013,-0.113C-0.003,-0.129 0.01,-0.143 0.026,-0.156C0.043,-0.168 0.061,-0.177 0.08,-0.184C0.1,-0.191 0.119,-0.195 0.137,-0.195C0.146,-0.195 0.153,-0.193 0.158,-0.188C0.163,-0.184 0.166,-0.178 0.166,-0.171C0.166,-0.162 0.163,-0.155 0.156,-0.148C0.149,-0.142 0.142,-0.138 0.134,-0.138C0.124,-0.138 0.119,-0.142 0.119,-0.151C0.119,-0.164 0.125,-0.17 0.136,-0.17C0.143,-0.17 0.147,-0.167 0.148,-0.161C0.149,-0.159 0.151,-0.158 0.152,-0.158C0.153,-0.158 0.155,-0.16 0.157,-0.162C0.158,-0.165 0.159,-0.168 0.159,-0.171C0.159,-0.176 0.157,-0.18 0.154,-0.183C0.15,-0.186 0.145,-0.188 0.139,-0.188C0.122,-0.188 0.101,-0.179 0.076,-0.16C0.052,-0.142 0.031,-0.12 0.013,-0.097C-0.005,-0.073 -0.014,-0.054 -0.014,-0.041C-0.014,-0.03 -0.006,-0.025 0.01,-0.025C0.039,-0.025 0.068,-0.034 0.096,-0.052C0.124,-0.07 0.16,-0.099 0.204,-0.138Z" style="fill-rule:nonzero;"/>
            </g>
            <g transform="matrix(1391.67,0,0,1391.67,2303.12,1304.41)">
                <path d="M0.137,-0.188C0.118,-0.188 0.096,-0.178 0.072,-0.159C0.048,-0.14 0.027,-0.118 0.01,-0.094C-0.008,-0.069 -0.017,-0.052 -0.017,-0.042C-0.017,-0.037 -0.015,-0.033 -0.012,-0.03C-0.009,-0.027 -0.005,-0.025 0,-0.025C0.013,-0.025 0.033,-0.034 0.058,-0.053C0.083,-0.071 0.105,-0.092 0.125,-0.116C0.146,-0.139 0.156,-0.158 0.156,-0.171C0.156,-0.182 0.15,-0.188 0.137,-0.188ZM0.266,-0.128L0.241,-0.107C0.202,-0.074 0.173,-0.051 0.155,-0.038C0.136,-0.025 0.119,-0.018 0.105,-0.018C0.096,-0.018 0.091,-0.023 0.091,-0.034C0.091,-0.046 0.095,-0.062 0.104,-0.082C0.057,-0.039 0.023,-0.018 0.001,-0.018C-0.009,-0.018 -0.017,-0.022 -0.023,-0.03C-0.029,-0.037 -0.032,-0.048 -0.032,-0.063C-0.032,-0.08 -0.027,-0.096 -0.018,-0.112C-0.008,-0.128 0.005,-0.142 0.022,-0.155C0.038,-0.167 0.057,-0.177 0.077,-0.184C0.097,-0.191 0.117,-0.195 0.136,-0.195C0.146,-0.195 0.153,-0.193 0.157,-0.19C0.161,-0.186 0.164,-0.181 0.164,-0.173C0.164,-0.171 0.163,-0.165 0.162,-0.162C0.162,-0.16 0.161,-0.157 0.161,-0.156L0.192,-0.192L0.233,-0.195L0.22,-0.179C0.21,-0.167 0.201,-0.157 0.195,-0.149C0.188,-0.141 0.183,-0.134 0.178,-0.129C0.127,-0.074 0.102,-0.042 0.102,-0.032C0.102,-0.027 0.104,-0.025 0.109,-0.025C0.115,-0.025 0.124,-0.029 0.137,-0.036C0.149,-0.043 0.163,-0.053 0.178,-0.065C0.194,-0.077 0.212,-0.091 0.231,-0.108C0.251,-0.124 0.263,-0.134 0.266,-0.136L0.266,-0.128Z" style="fill-rule:nonzero;"/>
            </g>
        </g>
    </g>
</svg>
